<svg width="1047" height="268" viewBox="0 0 1047 268" fill="none" xmlns="http://www.w3.org/2000/svg">
<ellipse cx="523.5" cy="251" rx="523.5" ry="17" fill="#F0F0F0"/>
<path d="M93.7656 238.469C93.7656 238.469 407.132 0 470.068 0C501.296 0 569.089 112.194 622.126 171.355C702.646 143.531 743.069 119.22 779.351 119.22C819.999 119.22 959.512 238.455 959.512 238.455H93.7656V238.469Z" fill="#DFECFF"/>
<path d="M700.475 70.9519H430.191C430.191 70.9519 535.055 64.3192 540.222 59.162C540.222 59.162 545.39 37.1419 564.594 50.1404C564.594 50.1404 559.427 28.9494 577.885 23.0474C593.358 18.101 602.989 31.1556 602.989 31.1556C602.989 31.1556 605.199 -1.27724 634.006 3.87998C662.812 9.0372 650.986 37.1419 650.986 37.1419C650.986 37.1419 666.487 29.6801 675.062 40.7393C683.495 51.6299 675.062 64.6002 675.062 64.6002L700.475 70.9519Z" fill="#C4D9FF"/>
<path d="M185.209 210.529C118.402 210.529 165.709 61.1807 185.209 61.1807C204.709 61.1807 252.016 210.529 185.209 210.529Z" fill="#7FC08A"/>
<path d="M185.209 238.463V75.6387" stroke="#7C2338" stroke-width="3.57553" stroke-miterlimit="10" stroke-linecap="round" stroke-linejoin="round"/>
<path d="M159.391 165.309L185.212 174.344" stroke="#7C2338" stroke-width="3.57553" stroke-miterlimit="10" stroke-linecap="round" stroke-linejoin="round"/>
<path d="M167.92 125.946L185.21 132.003" stroke="#7C2338" stroke-width="3.57553" stroke-miterlimit="10" stroke-linecap="round" stroke-linejoin="round"/>
<path d="M185.209 151.916L209.524 139.283" stroke="#7C2338" stroke-width="3.57553" stroke-miterlimit="10" stroke-linecap="round" stroke-linejoin="round"/>
<path d="M206.144 132.006L201.371 143.529" stroke="#7C2338" stroke-width="3.57553" stroke-miterlimit="10" stroke-linecap="round" stroke-linejoin="round"/>
<path d="M239.151 238.469C238.306 233.621 234.083 229.939 228.986 229.939C227.324 229.939 225.747 230.346 224.354 231.035C221.045 222.913 213.076 217.165 203.755 217.165C199.743 217.165 195.969 218.247 192.717 220.102C190.098 217.868 186.691 216.505 182.974 216.505C175.174 216.505 168.768 222.435 168.022 230.009C167.585 229.953 167.163 229.911 166.712 229.911C161.615 229.911 157.392 233.593 156.547 238.441H239.151V238.469Z" fill="#50A16A"/>
<path d="M628.546 238.469C627.701 233.621 623.477 229.939 618.38 229.939C616.719 229.939 615.142 230.346 613.748 231.035C610.439 222.913 602.47 217.165 593.15 217.165C589.137 217.165 585.364 218.247 582.112 220.102C579.493 217.868 576.086 216.505 572.369 216.505C564.569 216.505 558.162 222.435 557.416 230.009C556.98 229.953 556.557 229.911 556.107 229.911C551.01 229.911 546.786 233.593 545.941 238.441H628.546V238.469Z" fill="#50A16A"/>
<path d="M751.809 238.469C750.88 233.129 746.22 229.068 740.602 229.068C738.772 229.068 737.04 229.518 735.505 230.277C731.873 221.325 723.073 215.002 712.795 215.002C708.36 215.002 704.221 216.196 700.63 218.248C697.744 215.789 693.999 214.285 689.888 214.285C681.299 214.285 674.246 220.819 673.415 229.167C672.936 229.11 672.457 229.068 671.979 229.068C666.361 229.068 661.701 233.129 660.771 238.469H751.809Z" fill="#7FC08A"/>
<path d="M568.853 163.247L406.812 106.489V238.469H568.853V163.247Z" fill="#FFB070"/>
<path d="M416.612 109.918L406.812 106.489V238.469H416.612V109.918Z" fill="#FF8D5A"/>
<path d="M406.812 115.413L568.853 173.196V163.247L406.812 106.489V115.413Z" fill="#FF8D5A"/>
<path d="M402.484 108.104L582.997 172.478V155.925L402.484 91.5508V108.104Z" fill="#7C2338"/>
<path d="M411.723 238.468H204.516V149.236L411.723 61.6895V238.468Z" fill="#FFC578"/>
<path d="M204.516 157.822L411.723 68.8983V61.6895L204.516 149.236V157.822Z" fill="#FF8D5A"/>
<path d="M451.224 149.771H431.78C430.907 149.771 430.189 149.054 430.189 148.183V143.04C430.189 142.169 430.907 141.452 431.78 141.452H451.224C452.097 141.452 452.815 142.169 452.815 143.04V148.183C452.815 149.054 452.097 149.771 451.224 149.771Z" fill="#FF8D5A"/>
<path d="M322.837 149.771H303.394C302.521 149.771 301.803 149.054 301.803 148.183V143.04C301.803 142.169 302.521 141.452 303.394 141.452H322.837C323.71 141.452 324.428 142.169 324.428 143.04V148.183C324.428 149.054 323.724 149.771 322.837 149.771Z" fill="#FF8D5A"/>
<path d="M213.452 226.597H204.512V234.916H213.452C214.325 234.916 215.043 234.199 215.043 233.328V228.185C215.029 227.299 214.325 226.597 213.452 226.597Z" fill="#FF8D5A"/>
<path d="M392.08 123.254H372.636C371.763 123.254 371.045 122.537 371.045 121.666V116.522C371.045 115.651 371.763 114.935 372.636 114.935H392.08C392.953 114.935 393.671 115.651 393.671 116.522V121.666C393.671 122.551 392.953 123.254 392.08 123.254Z" fill="#FF8D5A"/>
<path d="M439.91 160.281H420.466C419.593 160.281 418.875 159.564 418.875 158.693V153.55C418.875 152.679 419.593 151.962 420.466 151.962H439.91C440.783 151.962 441.501 152.679 441.501 153.55V158.693C441.501 159.564 440.797 160.281 439.91 160.281Z" fill="#FF8D5A"/>
<path d="M418.877 61.2529L197.844 156.12V139.553L418.877 44.6992V61.2529Z" fill="#9B3448"/>
<path d="M313.125 161.548H225.424V215.537H313.125V161.548Z" fill="#FFECC5"/>
<path d="M310.631 164.146H227.914V212.936H310.631V164.146Z" fill="#3F9AFF"/>
<path opacity="0.24" d="M263.034 180.279C272.383 183.539 282.154 185.394 291.869 187.178C298.12 188.331 304.371 189.342 310.651 190.2V173.899C301.541 174.559 292.404 174.601 283.365 174.025C270.496 173.21 256.909 170.709 245.73 164.146H236.635C244.069 171.524 253.051 176.808 263.034 180.279Z" fill="#C4D9FF"/>
<path opacity="0.24" d="M280.459 190.258C260.902 187.194 241.768 180.829 227.914 166.818V181.503C231.814 186.773 236.334 191.565 241.473 195.724C250.807 203.27 261.677 208.849 273.095 212.938H310.631V193.391C300.48 192.914 290.371 191.803 280.459 190.258Z" fill="#C4D9FF"/>
<path d="M257.64 162.939H255.443V215.552H257.64V162.939Z" fill="#FFECC5"/>
<path d="M283.107 162.939H280.91V215.552H283.107V162.939Z" fill="#FFECC5"/>
<path d="M317.687 211.28H219.736V219.81H317.687V211.28Z" fill="#9B3448"/>
<path d="M399.109 147.339H347.859V238.468H399.109V147.339Z" fill="#FF8D5A"/>
<path d="M394.715 151.921H351.674V234.605H394.715V151.921Z" fill="#FFECC5"/>
<path d="M387.617 198.867C389.336 198.867 390.729 197.477 390.729 195.762C390.729 194.047 389.336 192.656 387.617 192.656C385.899 192.656 384.506 194.047 384.506 195.762C384.506 197.477 385.899 198.867 387.617 198.867Z" fill="#9B3448"/>
<path d="M402.484 230.755H341.914V238.484H402.484V230.755Z" fill="#9B3448"/>
<path d="M337.863 238.468C337.145 234.351 333.555 231.217 329.218 231.217C327.796 231.217 326.473 231.554 325.29 232.159C322.488 225.245 315.702 220.369 307.775 220.369C304.354 220.369 301.158 221.282 298.398 222.87C296.16 220.973 293.273 219.807 290.106 219.807C283.474 219.807 278.025 224.851 277.392 231.287C277.026 231.245 276.66 231.203 276.28 231.203C271.943 231.203 268.353 234.337 267.635 238.454H337.863V238.468Z" fill="#7FC08A"/>
<path d="M542.095 165.314H435.457V238.485H542.095V165.314Z" fill="#9B3448"/>
<path d="M538.929 168.28H438.641V238.472H538.929V168.28Z" fill="#FF8D5A"/>
<g opacity="0.3">
<path d="M438.641 174.35L451.171 174.083L463.702 173.928L488.778 173.802L513.853 173.928L526.384 174.083L538.929 174.35L526.384 174.631L513.853 174.785L488.778 174.912L463.702 174.785L451.171 174.631L438.641 174.35Z" fill="#9B3448"/>
</g>
<g opacity="0.3">
<path d="M438.641 183.398L451.171 183.131L463.702 182.976L488.778 182.85L513.853 182.976L526.384 183.131L538.929 183.398L526.384 183.665L513.853 183.833L488.778 183.96L463.702 183.819L451.171 183.665L438.641 183.398Z" fill="#9B3448"/>
</g>
<g opacity="0.3">
<path d="M438.641 192.449L451.171 192.182L463.702 192.028L488.778 191.901L513.853 192.028L526.384 192.182L538.929 192.449L526.384 192.716L513.853 192.871L488.778 192.997L463.702 192.871L451.171 192.716L438.641 192.449Z" fill="#9B3448"/>
</g>
<g opacity="0.3">
<path d="M438.641 201.5L451.171 201.233L463.702 201.078L488.778 200.938L513.853 201.064L526.384 201.219L538.929 201.5L526.384 201.767L513.853 201.921L488.778 202.048L463.702 201.921L451.171 201.767L438.641 201.5Z" fill="#9B3448"/>
</g>
<g opacity="0.3">
<path d="M438.641 210.533L451.171 210.266L463.702 210.112L488.778 209.985L513.853 210.112L526.384 210.266L538.929 210.533L526.384 210.814L513.853 210.969L488.778 211.095L463.702 210.969L451.171 210.814L438.641 210.533Z" fill="#9B3448"/>
</g>
<g opacity="0.3">
<path d="M438.641 219.584L451.171 219.317L463.702 219.163L488.778 219.036L513.853 219.163L526.384 219.317L538.929 219.584L526.384 219.865L513.853 220.02L488.778 220.146L463.702 220.006L451.171 219.851L438.641 219.584Z" fill="#9B3448"/>
</g>
<g opacity="0.3">
<path d="M438.641 228.632L451.171 228.365L463.702 228.21L488.778 228.084L513.853 228.21L526.384 228.365L538.929 228.632L526.384 228.899L513.853 229.054L488.778 229.18L463.702 229.054L451.171 228.899L438.641 228.632Z" fill="#9B3448"/>
</g>
<path d="M677.012 210.532C699.414 210.532 717.575 187.241 717.575 158.51C717.575 129.779 699.414 106.488 677.012 106.488C654.61 106.488 636.449 129.779 636.449 158.51C636.449 187.241 654.61 210.532 677.012 210.532Z" fill="#50A16A"/>
<path d="M677.012 132.008V238.469" stroke="#7C2338" stroke-width="3.57553" stroke-miterlimit="10" stroke-linecap="round" stroke-linejoin="round"/>
<path d="M677.012 188.076L702.087 179.055" stroke="#7C2338" stroke-width="3.57553" stroke-miterlimit="10" stroke-linecap="round" stroke-linejoin="round"/>
<path d="M677.012 143.796L693.766 137.768" stroke="#7C2338" stroke-width="3.57553" stroke-miterlimit="10" stroke-linecap="round" stroke-linejoin="round"/>
<path d="M677.014 169.837L659.273 152.117" stroke="#7C2338" stroke-width="3.57553" stroke-miterlimit="10" stroke-linecap="round" stroke-linejoin="round"/>
<path d="M628.549 210.529C561.742 210.529 609.049 61.1807 628.549 61.1807C648.049 61.1807 695.356 210.529 628.549 210.529Z" fill="#7FC08A"/>
<path d="M628.549 238.463V75.6387" stroke="#7C2338" stroke-width="3.57553" stroke-miterlimit="10" stroke-linecap="round" stroke-linejoin="round"/>
<path d="M602.73 165.309L628.552 174.344" stroke="#7C2338" stroke-width="3.57553" stroke-miterlimit="10" stroke-linecap="round" stroke-linejoin="round"/>
<path d="M611.26 125.946L628.549 132.003" stroke="#7C2338" stroke-width="3.57553" stroke-miterlimit="10" stroke-linecap="round" stroke-linejoin="round"/>
<path d="M628.549 151.916L652.864 139.283" stroke="#7C2338" stroke-width="3.57553" stroke-miterlimit="10" stroke-linecap="round" stroke-linejoin="round"/>
<path d="M649.484 132.006L644.697 143.529" stroke="#7C2338" stroke-width="3.57553" stroke-miterlimit="10" stroke-linecap="round" stroke-linejoin="round"/>
<path d="M248.979 81.126C256.692 81.126 262.945 74.8849 262.945 67.186C262.945 59.4872 256.692 53.2461 248.979 53.2461C241.265 53.2461 235.012 59.4872 235.012 67.186C235.012 74.8849 241.265 81.126 248.979 81.126Z" fill="#FFECC5"/>
<path d="M803.586 220.809H797.053V237.475H803.586V220.809Z" fill="#FF8D5A"/>
<path d="M870.713 220.809H864.18V237.475H870.713V220.809Z" fill="#FF8D5A"/>
<path d="M833.266 160L809.725 169.837V164.96H798.926V174.347L790 178.071V226.51H876.532V178.071L833.266 160Z" fill="#FF5A3C"/>
<circle cx="833.5" cy="195.5" r="15.5" fill="white"/>
<path fill-rule="evenodd" clip-rule="evenodd" d="M834.105 186.485C833.672 186.485 833.255 186.642 832.933 186.926L826.506 192.602C826.134 192.929 825.924 193.395 825.924 193.883V201.985C825.924 202.442 826.109 202.88 826.437 203.203C826.766 203.526 827.212 203.708 827.677 203.708H840.532C840.997 203.708 841.443 203.526 841.772 203.203C842.1 202.88 842.285 202.442 842.285 201.985V193.883C842.285 193.641 842.233 193.402 842.133 193.182C842.033 192.961 841.887 192.763 841.704 192.602L835.277 186.926C834.955 186.642 834.538 186.485 834.105 186.485Z" fill="#FF5A3C"/>
<path d="M829.568 196.679L832.521 199.599L838.179 194.433" stroke="white" stroke-width="1.18638" stroke-linecap="round" stroke-linejoin="round"/>
<path d="M760.592 237.461C773.714 236.871 786.85 236.477 799.972 236.281C813.094 236.042 826.23 235.971 839.352 235.943C852.474 235.971 865.611 236.042 878.733 236.281C891.855 236.477 904.991 236.871 918.113 237.475C904.991 238.065 891.855 238.459 878.733 238.67C865.611 238.908 852.474 238.979 839.352 239.007C826.23 238.979 813.094 238.908 799.972 238.67C786.85 238.445 773.714 238.051 760.592 237.461Z" fill="#7C2338"/>
</svg>
