<svg width="188" height="225" viewBox="0 0 188 225" fill="none" xmlns="http://www.w3.org/2000/svg">
<g clip-path="url(#clip0_1381_85749)">
<path d="M138.348 144.998C137.71 145.633 136.937 146.112 136.036 146.44L135.127 146.713C135.127 146.713 12.5013 196.139 2.96641 186.579C-6.56851 177.019 43.354 54.7006 43.354 54.7006L43.6304 53.7933C43.9622 52.894 44.4447 52.124 45.0825 51.4891C52.7105 43.8966 79.7744 58.6729 105.529 84.4944C131.283 110.316 145.976 137.406 138.348 144.998Z" fill="url(#paint0_linear_1381_85749)"/>
<path d="M130.718 148.47C124.265 151.026 111.343 156.086 96.0845 161.75C86.7523 165.216 76.5454 168.907 66.41 172.386C57.553 175.426 48.7491 178.31 40.6367 180.741C35.063 176.061 29.524 170.986 24.0975 165.546C18.6709 160.105 13.6111 154.553 8.94727 148.968C11.4093 140.873 14.3285 132.088 17.4047 123.252C20.924 113.139 24.6563 102.957 28.1594 93.647C33.8849 78.4251 38.9974 65.5354 41.5796 59.0977C58.033 68.0107 75.6146 81.1921 92.1697 97.7905C108.725 114.389 121.856 132.001 130.718 148.47Z" fill="url(#paint1_linear_1381_85749)"/>
<path d="M138.347 144.997C137.71 145.634 136.936 146.111 136.035 146.441L135.127 146.712C135.127 146.712 133.541 147.351 130.718 148.469C124.265 151.025 111.343 156.086 96.0845 161.75C86.7523 165.215 76.5454 168.906 66.41 172.385C57.6005 165.748 48.7708 158.08 40.2153 149.502C31.6599 140.924 24.0167 132.076 17.4043 123.251C20.9236 113.139 24.6559 102.956 28.159 93.6466C33.8845 78.4247 38.997 65.5349 41.5793 59.0972C42.7091 56.2812 43.3546 54.7 43.3546 54.7L43.6288 53.7934C43.9632 52.8945 44.4428 52.1226 45.0827 51.4892C52.7111 43.8963 79.7724 58.6737 105.528 84.493C131.281 110.317 145.975 137.404 138.347 144.997Z" fill="url(#paint2_linear_1381_85749)"/>
<path d="M138.347 144.997C137.711 145.634 136.937 146.11 136.036 146.441L135.127 146.711C135.127 146.711 133.542 147.35 130.719 148.469C124.265 151.025 111.344 156.085 96.0853 161.749C83.6659 153.579 70.9438 143.224 58.7784 131.027C46.6129 118.829 36.2939 106.083 28.1602 93.6466C33.8857 78.4247 38.9982 65.5349 41.5804 59.0972C42.7103 56.2812 43.3557 54.7 43.3557 54.7L43.63 53.7934C43.9643 52.8945 44.4439 52.1226 45.0838 51.4892C52.7122 43.8963 79.7735 58.6737 105.53 84.4931C131.282 110.317 145.976 137.404 138.347 144.997Z" fill="url(#paint3_linear_1381_85749)"/>
<path d="M138.348 144.999C130.718 152.593 103.655 137.817 77.9004 111.995C52.1463 86.173 37.4528 59.0843 45.0823 51.4899C52.7118 43.8956 79.7753 58.6722 105.529 84.4941C131.284 110.316 145.977 137.405 138.348 144.999Z" fill="url(#paint4_linear_1381_85749)"/>
<path d="M133.591 138.039C127.955 143.649 105.128 129.891 82.6056 107.31C60.0835 84.7293 46.3949 61.8759 52.0312 56.2656C57.6675 50.6554 80.4948 64.4131 103.017 86.994C125.539 109.575 139.228 132.428 133.591 138.039Z" fill="url(#paint5_linear_1381_85749)"/>
<path d="M138.349 144.998C145.977 137.406 131.284 110.316 105.53 84.4947C90.4281 69.3538 74.8783 58.0136 63.0586 52.751C63.5201 53.5994 64.0351 54.4405 64.6105 55.2698C65.5457 56.6176 66.6405 57.8461 67.8732 58.9537L74.4131 65.5321C73.6592 65.8739 72.9666 66.1441 72.3841 66.3493C71.3413 66.7164 70.7308 67.7939 70.9491 68.8765L73.2633 80.36C73.4679 81.3752 74.1808 82.1463 75.0718 82.4833L137.858 145.433C138.029 145.298 138.193 145.153 138.349 144.998Z" fill="url(#paint6_linear_1381_85749)"/>
<path d="M96.5996 109.321L103.022 116.99L132.939 146.985C135.225 146.921 137.062 146.279 138.347 145C145.014 138.364 134.634 116.841 114.724 94.2861C108.52 96.8745 102.605 100.263 97.143 104.429C95.5999 105.605 95.354 107.833 96.5996 109.321Z" fill="url(#paint7_linear_1381_85749)"/>
<path d="M103.024 116.989L96.6016 109.32C95.356 107.832 95.6019 105.605 97.1446 104.428C117.048 89.2477 142.937 84.3172 167.116 91.2642C173.201 93.0123 179.028 95.4637 184.482 98.5669C186.169 99.527 186.71 101.704 185.673 103.344L180.331 111.799C179.362 113.332 177.363 113.833 175.781 112.947C171.594 110.604 167.13 108.745 162.469 107.406C143.56 101.973 123.322 105.764 107.685 117.522C106.236 118.612 104.188 118.379 103.024 116.989Z" fill="url(#paint8_linear_1381_85749)"/>
<path d="M47.5268 37.367L41.6955 31.373C39.0524 28.6561 38.2565 24.2828 39.8 20.9575C41.5919 17.0964 45.8923 15.9648 49.3559 18.4428C52.3392 20.5771 53.8034 24.7744 52.8431 28.4396L50.725 36.5256C50.3508 37.9544 48.5575 38.4264 47.5268 37.367Z" fill="url(#paint9_linear_1381_85749)"/>
<path d="M37.2121 43.8755L28.932 42.6736C25.179 42.1289 21.8798 39.1461 21.0747 35.5701C20.1399 31.4177 22.8589 27.9024 27.1165 27.7584C30.7836 27.6343 34.5053 30.0703 35.9802 33.5609L39.234 41.2613C39.8095 42.622 38.6752 44.088 37.2121 43.8755Z" fill="url(#paint10_linear_1381_85749)"/>
<path d="M148.074 140.026L156.407 139.272C160.184 138.931 164.086 141.065 165.701 144.357C167.576 148.178 165.75 152.228 161.642 153.358C158.104 154.33 153.918 152.824 151.671 149.772L146.715 143.038C145.839 141.848 146.601 140.158 148.074 140.026Z" fill="url(#paint11_linear_1381_85749)"/>
<path d="M149.504 127.921L155.651 122.251C158.437 119.68 162.834 118.997 166.122 120.623C169.94 122.511 170.963 126.834 168.395 130.23C166.183 133.155 161.945 134.51 158.302 133.458L150.264 131.137C148.844 130.727 148.418 128.923 149.504 127.921Z" fill="url(#paint12_linear_1381_85749)"/>
<path d="M76.9551 82.5329C75.3247 83.058 73.6017 82.0379 73.2637 80.3602L70.9495 68.8768C70.7312 67.7937 71.3417 66.7166 72.3845 66.3495C73.6032 65.9205 75.2967 65.2145 77.0473 64.1393C71.7601 62.3956 67.4578 59.3723 64.6113 55.27C59.2448 47.5357 58.8242 38.8178 63.4855 31.9496C68.0981 25.1533 76.6212 21.8376 84.696 23.6998C93.5235 25.7355 99.7242 33.4513 101.283 44.3404C101.348 44.7937 101.405 45.2448 101.455 45.6941C103.621 44.4266 105.37 42.863 106.466 41.1127C109.241 36.6831 109.504 30.0723 107.138 24.2713C105.636 20.5896 103.318 17.7739 100.703 16.3577C99.5369 15.7261 98.9154 14.4155 99.228 13.1278L101.879 2.20664C102.285 0.53406 104.069 -0.428539 105.678 0.187171C113.098 3.02599 119.203 9.3396 122.708 17.933C127.114 28.733 126.352 41.028 120.72 50.0206C116.265 57.1352 108.047 62.442 98.5457 64.6854C96.4113 69.1434 93.2171 73.0597 89.0277 76.2682C84.554 79.6937 79.9193 81.5784 76.9551 82.5329ZM80.2507 39.9918C79.1511 39.9899 77.9703 40.5368 77.4019 41.3749C76.5526 42.6262 77.6813 44.6232 78.4297 45.7018C79.4559 47.1811 81.8454 48.2847 84.8552 48.7789C84.8117 48.1094 84.7395 47.4227 84.6384 46.7178C84.1014 42.9661 82.7091 40.4794 80.9138 40.0654C80.7004 40.0161 80.4774 39.9922 80.2507 39.9918Z" fill="url(#paint13_radial_1381_85749)"/>
<path d="M113.506 57.7767L101.454 45.6934C101.454 45.6934 102.224 57.3609 98.5449 64.685C104.148 63.3622 109.304 60.9731 113.506 57.7767Z" fill="url(#paint14_linear_1381_85749)"/>
<path d="M78.4283 45.7019C77.8801 44.9117 77.1311 43.6298 77.1016 42.5081L60.2656 42.4775C60.2918 46.7349 61.746 51.1424 64.6099 55.2701C67.4564 59.3727 71.7583 62.3961 77.0459 64.1393C77.0459 64.1393 85.6748 61.5244 84.8542 48.779C81.844 48.2848 79.4545 47.1812 78.4283 45.7019Z" fill="url(#paint15_linear_1381_85749)"/>
<path d="M114.131 83.9525C110.223 86.4967 106.888 89.8481 104.362 93.7685C103.794 94.65 102.484 94.6478 101.919 93.764C99.4081 89.8345 96.086 86.4709 92.1867 83.9123C91.3212 83.3445 91.3237 82.053 92.1911 81.4885C96.0993 78.9443 99.4339 75.5929 101.959 71.6725C102.527 70.7909 103.838 70.7931 104.403 71.6769C106.914 75.6065 110.236 78.9701 114.135 81.5287C115.001 82.0965 114.998 83.3879 114.131 83.9525Z" fill="url(#paint16_linear_1381_85749)"/>
<path d="M185.592 78.8196C181.683 81.3639 178.349 84.7153 175.823 88.6357C175.256 89.5172 173.945 89.515 173.38 88.6312C170.869 84.7017 167.547 81.3381 163.648 78.7795C162.782 78.2117 162.785 76.9202 163.652 76.3557C167.56 73.8115 170.895 70.4601 173.42 66.5397C173.988 65.6581 175.299 65.6603 175.864 66.5441C178.375 70.4737 181.697 73.8373 185.596 76.3958C186.462 76.9633 186.459 78.2548 185.592 78.8196Z" fill="url(#paint17_linear_1381_85749)"/>
<path d="M152.125 21.8021C148.217 24.3463 144.882 27.6977 142.357 31.6181C141.789 32.4997 140.478 32.4974 139.913 31.6137C137.402 27.6841 134.08 24.3205 130.181 21.7619C129.315 21.1941 129.318 19.9026 130.185 19.3381C134.093 16.7939 137.428 13.4425 139.954 9.52211C140.521 8.64053 141.832 8.64274 142.397 9.52653C144.908 13.4561 148.23 16.8197 152.129 19.3783C152.995 19.9461 152.992 21.2375 152.125 21.8021Z" fill="url(#paint18_linear_1381_85749)"/>
<path d="M148.503 61.1192C145.654 62.9741 143.224 65.4171 141.383 68.2747C140.969 68.9172 140.013 68.9154 139.602 68.2713C137.772 65.4067 135.35 62.9549 132.507 61.0898C131.877 60.6759 131.878 59.7346 132.511 59.3229C135.36 57.4681 137.79 55.0251 139.631 52.1675C140.045 51.5249 141.001 51.5264 141.412 52.1708C143.243 55.0354 145.665 57.4872 148.507 59.3524C149.138 59.7663 149.136 60.7075 148.503 61.1192Z" fill="url(#paint19_linear_1381_85749)"/>
<path d="M160.109 39.0284C157.26 40.8833 154.829 43.3262 152.988 46.1838C152.574 46.8264 151.619 46.8246 151.207 46.1805C149.377 43.3159 146.955 40.8641 144.113 38.999C143.482 38.585 143.483 37.6438 144.116 37.2321C146.965 35.3772 149.396 32.9343 151.237 30.0767C151.651 29.4341 152.606 29.4356 153.018 30.08C154.848 32.9446 157.27 35.3964 160.112 37.2616C160.743 37.6755 160.741 38.6167 160.109 39.0284Z" fill="url(#paint20_linear_1381_85749)"/>
</g>
<path d="M69.8333 145.06C48.462 145.06 31.0762 162.424 31.0762 183.779C31.0762 205.135 48.462 222.499 69.8333 222.499C91.2046 222.499 108.59 205.135 108.59 183.779C108.59 162.424 91.2046 145.06 69.8333 145.06Z" fill="#004751" stroke="white" stroke-width="5"/>
<path d="M88.2072 176.103L68.5677 195.722C67.9785 196.311 67.2051 196.607 66.4317 196.607C65.6582 196.607 64.8848 196.311 64.2956 195.722L54.4761 185.913C53.2944 184.733 53.2944 182.825 54.4761 181.645C55.6573 180.464 57.5665 180.464 58.7483 181.645L66.4317 189.32L83.9351 171.836C85.1162 170.655 87.0255 170.655 88.2072 171.836C89.3883 173.016 89.3883 174.923 88.2072 176.103Z" fill="#FAFAFA"/>
<defs>
<linearGradient id="paint0_linear_1381_85749" x1="25.9829" y1="91.8707" x2="80.4736" y2="170.37" gradientUnits="userSpaceOnUse">
<stop stop-color="#FFE548"/>
<stop offset="0.1758" stop-color="#FFDE50"/>
<stop offset="0.4446" stop-color="#FFCA65"/>
<stop offset="0.7709" stop-color="#FFAA87"/>
<stop offset="1" stop-color="#FF90A4"/>
</linearGradient>
<linearGradient id="paint1_linear_1381_85749" x1="68.4875" y1="153.369" x2="57.9721" y2="190.429" gradientUnits="userSpaceOnUse">
<stop stop-color="#FBA5C2" stop-opacity="0"/>
<stop offset="0.3857" stop-color="#FCA0BA" stop-opacity="0.386"/>
<stop offset="0.9737" stop-color="#FF91A5" stop-opacity="0.974"/>
<stop offset="1" stop-color="#FF90A4"/>
</linearGradient>
<linearGradient id="paint2_linear_1381_85749" x1="79.0716" y1="131.268" x2="66.0504" y2="178.029" gradientUnits="userSpaceOnUse">
<stop stop-color="#FBA5C2" stop-opacity="0"/>
<stop offset="0.3857" stop-color="#FCA0BA" stop-opacity="0.386"/>
<stop offset="0.9737" stop-color="#FF91A5" stop-opacity="0.974"/>
<stop offset="1" stop-color="#FF90A4"/>
</linearGradient>
<linearGradient id="paint3_linear_1381_85749" x1="87.7355" y1="105.875" x2="71.4691" y2="159.101" gradientUnits="userSpaceOnUse">
<stop stop-color="#FBA5C2" stop-opacity="0"/>
<stop offset="0.3857" stop-color="#FCA0BA" stop-opacity="0.386"/>
<stop offset="0.9737" stop-color="#FF91A5" stop-opacity="0.974"/>
<stop offset="1" stop-color="#FF90A4"/>
</linearGradient>
<linearGradient id="paint4_linear_1381_85749" x1="97.0076" y1="86.3317" x2="79.7727" y2="125.128" gradientUnits="userSpaceOnUse">
<stop stop-color="#FFE548"/>
<stop offset="0.1758" stop-color="#FFDE50"/>
<stop offset="0.4446" stop-color="#FFCA65"/>
<stop offset="0.7709" stop-color="#FFAA87"/>
<stop offset="1" stop-color="#FF90A4"/>
</linearGradient>
<linearGradient id="paint5_linear_1381_85749" x1="80.7229" y1="115.639" x2="105.048" y2="78.3408" gradientUnits="userSpaceOnUse">
<stop stop-color="#FFD00D" stop-opacity="0"/>
<stop offset="1" stop-color="#DB722B"/>
</linearGradient>
<linearGradient id="paint6_linear_1381_85749" x1="103.292" y1="99.2932" x2="88.0955" y2="52.5978" gradientUnits="userSpaceOnUse">
<stop stop-color="#FFD00D" stop-opacity="0"/>
<stop offset="1" stop-color="#DB722B"/>
</linearGradient>
<linearGradient id="paint7_linear_1381_85749" x1="121.387" y1="125.047" x2="109.116" y2="104.855" gradientUnits="userSpaceOnUse">
<stop stop-color="#A34A9E" stop-opacity="0"/>
<stop offset="1" stop-color="#343168"/>
</linearGradient>
<linearGradient id="paint8_linear_1381_85749" x1="140.736" y1="118.737" x2="141.295" y2="87.9705" gradientUnits="userSpaceOnUse">
<stop stop-color="#A34A9E"/>
<stop offset="1" stop-color="#343168"/>
</linearGradient>
<linearGradient id="paint9_linear_1381_85749" x1="44.5531" y1="26.2212" x2="51.321" y2="29.1693" gradientUnits="userSpaceOnUse">
<stop stop-color="#3FA9F5"/>
<stop offset="1" stop-color="#666AD6"/>
</linearGradient>
<linearGradient id="paint10_linear_1381_85749" x1="28.2127" y1="36.782" x2="35.371" y2="34.9918" gradientUnits="userSpaceOnUse">
<stop stop-color="#A34A9E"/>
<stop offset="1" stop-color="#343168"/>
</linearGradient>
<linearGradient id="paint11_linear_1381_85749" x1="157.95" y1="144.891" x2="140.253" y2="155.572" gradientUnits="userSpaceOnUse">
<stop stop-color="#FF4974"/>
<stop offset="0.4497" stop-color="#FE4773"/>
<stop offset="0.6292" stop-color="#FC406D"/>
<stop offset="0.7605" stop-color="#F73464"/>
<stop offset="0.8683" stop-color="#F12257"/>
<stop offset="0.9606" stop-color="#E80C46"/>
<stop offset="1" stop-color="#E4003D"/>
</linearGradient>
<linearGradient id="paint12_linear_1381_85749" x1="161.141" y1="122.974" x2="152.889" y2="146.602" gradientUnits="userSpaceOnUse">
<stop stop-color="#C4F8B6"/>
<stop offset="1" stop-color="#3B8EAC"/>
</linearGradient>
<radialGradient id="paint13_radial_1381_85749" cx="0" cy="0" r="1" gradientUnits="userSpaceOnUse" gradientTransform="translate(62.8382 13.7361) rotate(0.114473) scale(74.0051 73.9288)">
<stop stop-color="#FF4974"/>
<stop offset="0.4497" stop-color="#FE4773"/>
<stop offset="0.6292" stop-color="#FC406D"/>
<stop offset="0.7605" stop-color="#F73464"/>
<stop offset="0.8683" stop-color="#F12257"/>
<stop offset="0.9606" stop-color="#E80C46"/>
<stop offset="1" stop-color="#E4003D"/>
</radialGradient>
<linearGradient id="paint14_linear_1381_85749" x1="115.541" y1="66.4446" x2="88.884" y2="47.143" gradientUnits="userSpaceOnUse">
<stop stop-color="#E4003D" stop-opacity="0"/>
<stop offset="0.3434" stop-color="#CD0E2D" stop-opacity="0.343"/>
<stop offset="1" stop-color="#972E07"/>
</linearGradient>
<linearGradient id="paint15_linear_1381_85749" x1="75.0549" y1="52.6801" x2="82.5067" y2="59.6077" gradientUnits="userSpaceOnUse">
<stop stop-color="#E4003D" stop-opacity="0"/>
<stop offset="0.3434" stop-color="#CD0E2D" stop-opacity="0.343"/>
<stop offset="1" stop-color="#972E07"/>
</linearGradient>
<linearGradient id="paint16_linear_1381_85749" x1="99.3577" y1="77.6726" x2="111.638" y2="94.1322" gradientUnits="userSpaceOnUse">
<stop stop-color="#3FA9F5"/>
<stop offset="1" stop-color="#666AD6"/>
</linearGradient>
<linearGradient id="paint17_linear_1381_85749" x1="170.82" y1="72.5522" x2="183.1" y2="89.0117" gradientUnits="userSpaceOnUse">
<stop stop-color="#3FA9F5"/>
<stop offset="1" stop-color="#666AD6"/>
</linearGradient>
<linearGradient id="paint18_linear_1381_85749" x1="137.363" y1="15.5291" x2="149.644" y2="31.9886" gradientUnits="userSpaceOnUse">
<stop stop-color="#A34A9E"/>
<stop offset="1" stop-color="#343168"/>
</linearGradient>
<linearGradient id="paint19_linear_1381_85749" x1="137.735" y1="56.5532" x2="146.687" y2="68.5518" gradientUnits="userSpaceOnUse">
<stop stop-color="#C4F8B6"/>
<stop offset="1" stop-color="#3B8EAC"/>
</linearGradient>
<linearGradient id="paint20_linear_1381_85749" x1="149.344" y1="34.4642" x2="158.296" y2="46.4627" gradientUnits="userSpaceOnUse">
<stop stop-color="#FFE548"/>
<stop offset="0.1758" stop-color="#FFDE50"/>
<stop offset="0.4446" stop-color="#FFCA65"/>
<stop offset="0.7709" stop-color="#FFAA87"/>
<stop offset="1" stop-color="#FF90A4"/>
</linearGradient>
<clipPath id="clip0_1381_85749">
<rect width="188" height="187.806" fill="white"/>
</clipPath>
</defs>
</svg>
