<?xml version="1.0" encoding="UTF-8"?>
<!DOCTYPE svg PUBLIC "-//W3C//DTD SVG 1.1//EN" "http://www.w3.org/Graphics/SVG/1.1/DTD/svg11.dtd">
<svg xmlns="http://www.w3.org/2000/svg" version="1.1" width="500px" height="500px" style="shape-rendering:geometricPrecision; text-rendering:geometricPrecision; image-rendering:optimizeQuality; fill-rule:evenodd; clip-rule:evenodd" xmlns:xlink="http://www.w3.org/1999/xlink">
<g><path style="opacity:1" fill="#fffefe" d="M -0.5,-0.5 C 166.167,-0.5 332.833,-0.5 499.5,-0.5C 499.5,166.167 499.5,332.833 499.5,499.5C 332.833,499.5 166.167,499.5 -0.5,499.5C -0.5,332.833 -0.5,166.167 -0.5,-0.5 Z"/></g>
<g><path style="opacity:1" fill="#ff924f" d="M 252.5,176.5 C 257.121,175.993 261.454,176.826 265.5,179C 279.344,192.544 292.844,206.378 306,220.5C 307.5,227 305,229.5 298.5,228C 285.529,214.029 272.196,200.362 258.5,187C 257.5,186.333 256.5,186.333 255.5,187C 243,200.167 230.5,213.333 218,226.5C 217.333,243.167 217.333,259.833 218,276.5C 219.167,278.333 220.667,279.833 222.5,281C 245.833,281.333 269.167,281.667 292.5,282C 296.717,285.473 296.384,288.473 291.5,291C 267.833,291.667 244.167,291.667 220.5,291C 215.475,289.311 211.641,286.144 209,281.5C 207.371,262.232 207.038,242.898 208,223.5C 210.615,219.217 213.615,215.217 217,211.5C 228.782,199.55 240.615,187.883 252.5,176.5 Z"/></g>
</svg>
